<svg xmlns="http://www.w3.org/2000/svg" viewBox="0 0 35.7 40.18"><defs><style>.cls-1{fill:#fff;}</style></defs><g id="Calque_2" data-name="Calque 2"><g id="Calque_1-2" data-name="Calque 1"><path class="cls-1" d="M0,21.45A17.59,17.59,0,0,1,6,9a17,17,0,0,1,6.33-3.62c.68-.21.8,0,1.22.42a.23.23,0,0,1,0,.18c0,2,0,3.89,0,5.84a.33.33,0,0,1-.1.25,2.73,2.73,0,0,1-.76.55A11,11,0,0,0,9.4,29.41a10.5,10.5,0,0,0,6.44,3.78,11,11,0,0,0,8-20.13,2.73,2.73,0,0,0-.53-.29.77.77,0,0,1-.48-.7c-.06-.56,0-1.12-.06-1.68,0-1.37-.05-2.73,0-4.1a.78.78,0,0,1,1.12-.76,16.85,16.85,0,0,1,5.48,3.15,17.86,17.86,0,0,1,6,10.2,17,17,0,0,1,.26,4.83,17.34,17.34,0,0,1-6.11,12.13,17.5,17.5,0,0,1-8.38,4.06,13.94,13.94,0,0,1-1.93.24s-.08,0-.1,0h-.25a.33.33,0,0,0-.24,0h-.25a.94.94,0,0,0-.41,0h-.28a1.88,1.88,0,0,0-.41,0,1,1,0,0,0-.29,0h-.25a.09.09,0,0,0-.12,0h-.2c-.29,0-.57,0-.86-.06a17.72,17.72,0,0,1-5.67-1.73A17.4,17.4,0,0,1,6.15,35.9,17.88,17.88,0,0,1,2,30.6a18.15,18.15,0,0,1-1.8-5.41A15,15,0,0,1,0,22.78V21.71A2.17,2.17,0,0,1,0,21.45Z"/><path class="cls-1" d="M17.27,40.14c.14,0,.28,0,.42,0h-.41s0,0,0,0Z"/><path class="cls-1" d="M18,40.18a.49.49,0,0,1,.41,0Z"/><path class="cls-1" d="M17.27,40.14s0,0,0,0H17C17.07,40.1,17.18,40.16,17.27,40.14Z"/><path class="cls-1" d="M18.63,40.18a.18.18,0,0,1,.24,0Z"/><path class="cls-1" d="M16.62,40.18c0-.07.08-.06.12,0Z"/><path class="cls-1" d="M15.3,9.91V2.35a1.42,1.42,0,0,1,.12-.57A3.28,3.28,0,0,1,17,.23a2.82,2.82,0,0,1,3.46,1.05,6.87,6.87,0,0,1,.42.81.35.35,0,0,1,0,.2V17.55a1.38,1.38,0,0,1-.18.54,3,3,0,0,1-1.06,1.27,2.81,2.81,0,0,1-4-.84,2.06,2.06,0,0,1-.4-1.23C15.31,14.83,15.3,12.37,15.3,9.91Z"/></g></g></svg>